<?xml version="1.0" encoding="UTF-8" standalone="no"?>
<svg
   version="1.1"
   id="notebook"
   x="0px"
   y="0px"
   width="32px"
   height="32px"
   viewBox="0 0 32 32"
   enable-background="new 0 0 32 32"
   xml:space="preserve"
   sodipodi:docname="notebook.svg"
   inkscape:version="1.1.2 (b8e25be8, 2022-02-05)"
   xmlns:inkscape="http://www.inkscape.org/namespaces/inkscape"
   xmlns:sodipodi="http://sodipodi.sourceforge.net/DTD/sodipodi-0.dtd"
   xmlns="http://www.w3.org/2000/svg"
   xmlns:svg="http://www.w3.org/2000/svg"><defs
   id="defs7" /><sodipodi:namedview
   id="namedview5"
   pagecolor="#ffffff"
   bordercolor="#666666"
   borderopacity="1.0"
   inkscape:pageshadow="2"
   inkscape:pageopacity="0.0"
   inkscape:pagecheckerboard="0"
   showgrid="false"
   inkscape:lockguides="true"
   inkscape:zoom="5.0373353"
   inkscape:cx="29.67839"
   inkscape:cy="23.72286"
   inkscape:window-width="1296"
   inkscape:window-height="735"
   inkscape:window-x="0"
   inkscape:window-y="35"
   inkscape:window-maximized="0"
   inkscape:current-layer="notebook" />
  <path
   d="M5 1v5H3v2h2v4H3v2h2v4H3v2h2v4H3v2h2v5h24V1H5zM7 29v-3h2v-2H7v-4h2v-2H7v-4h2v-2H7V8h2V6H7V3h16v26H7zM27 29h-2V3h2V29z"
   id="path2" />
<path
   style="fill:#47506a;fill-opacity:1;stroke:#000000;stroke-width:0.0218548;stroke-linejoin:bevel"
   d="M 5.1835166,28.299199 V 25.777488 H 4.2028513 c -0.9028347,0 -0.9806653,-0.06671 -0.9806653,-0.84057 0,-0.773859 0.077831,-0.84057 0.9806653,-0.84057 H 5.1835166 V 21.994922 19.893496 H 4.2028513 c -0.9028347,0 -0.9806653,-0.06671 -0.9806653,-0.84057 0,-0.773858 0.077831,-0.84057 0.9806653,-0.84057 H 5.1835166 V 15.970835 13.729314 H 4.2028513 c -0.9028347,0 -0.9806653,-0.06671 -0.9806653,-0.84057 0,-0.773858 0.077831,-0.84057 0.9806653,-0.84057 H 5.1835166 V 9.9467481 7.8453225 H 4.2028513 c -0.9028347,0 -0.9806653,-0.066712 -0.9806653,-0.8405703 0,-0.7738584 0.077831,-0.8405703 0.9806653,-0.8405703 H 5.1835166 V 3.6424711 1.1207604 H 17.091595 28.999674 V 15.970835 30.82091 H 17.091595 5.1835166 Z M 23.115682,15.970835 V 2.8019009 H 14.99017 6.8646571 v 1.6811405 1.6811405 h 0.9806654 c 0.9028346,0 0.9806653,0.066712 0.9806653,0.8405703 0,0.7738584 -0.077831,0.8405703 -0.9806653,0.8405703 H 6.8646571 v 2.1014256 2.1014259 h 0.9806654 c 0.9028346,0 0.9806653,0.06671 0.9806653,0.84057 0,0.773858 -0.077831,0.84057 -0.9806653,0.84057 H 6.8646571 v 2.241521 2.241521 h 0.9806654 c 0.9028346,0 0.9806653,0.06671 0.9806653,0.84057 0,0.773858 -0.077831,0.84057 -0.9806653,0.84057 H 6.8646571 v 2.101426 2.101426 h 0.9806654 c 0.9028346,0 0.9806653,0.06671 0.9806653,0.84057 0,0.773858 -0.077831,0.84057 -0.9806653,0.84057 H 6.8646571 v 1.681141 1.68114 h 8.1255129 8.125512 z m 3.922661,0 V 2.8019009 h -1.12076 -1.12076 V 15.970835 29.139769 h 1.12076 1.12076 z"
   id="path2553" /></svg>
