<?xml version="1.0" encoding="UTF-8" standalone="no"?>
<svg
   height="48"
   width="48"
   version="1.1"
   id="svg827"
   sodipodi:docname="icon-dark.svg"
   inkscape:version="1.1.2 (b8e25be8, 2022-02-05)"
   xmlns:inkscape="http://www.inkscape.org/namespaces/inkscape"
   xmlns:sodipodi="http://sodipodi.sourceforge.net/DTD/sodipodi-0.dtd"
   xmlns="http://www.w3.org/2000/svg"
   xmlns:svg="http://www.w3.org/2000/svg">
  <defs
     id="defs831" />
  <sodipodi:namedview
     id="namedview829"
     pagecolor="#ffffff"
     bordercolor="#666666"
     borderopacity="1.0"
     inkscape:pageshadow="2"
     inkscape:pageopacity="0.0"
     inkscape:pagecheckerboard="0"
     showgrid="false"
     inkscape:zoom="12.354167"
     inkscape:cx="24.161888"
     inkscape:cy="23.999999"
     inkscape:window-width="1296"
     inkscape:window-height="831"
     inkscape:window-x="0"
     inkscape:window-y="25"
     inkscape:window-maximized="0"
     inkscape:current-layer="svg827" />
  <path
     style="fill:#b3b3b3;stroke:#000000;stroke-width:0;stroke-linejoin:bevel;stroke-miterlimit:4;stroke-dasharray:none"
     d="M 10.23946,43.634166 C 10.083642,43.602725 9.84688,43.518709 9.7133218,43.447464 9.4214281,43.291757 8.8041774,42.659062 8.5098922,42.213924 L 8.2967957,41.891593 V 24.152002 6.412413 L 8.650569,5.931846 C 9.0212172,5.428356 9.5345327,4.967576 9.9723713,4.745324 10.208421,4.625503 11.4431,4.613828 23.878583,4.613828 c 12.438932,0 13.669681,0.01164 13.901516,0.131531 0.361318,0.186845 1.097468,0.897296 1.368865,1.321078 l 0.230462,0.359861 v 17.674513 c 0,16.152557 -0.01132,17.696819 -0.131497,17.933562 -0.222251,0.437838 -0.683031,0.951154 -1.186521,1.321802 l -0.480567,0.353773 -13.529038,-0.0093 c -7.44097,-0.0051 -13.656525,-0.03503 -13.812343,-0.06647 z m 26.682621,-2.235624 c 0.16814,-0.04876 0.175064,-0.104164 0.230483,-1.844137 0.03142,-0.986626 0.04448,-8.708444 0.02901,-17.159594 C 37.153664,7.140398 37.152284,7.028197 36.991567,6.906844 36.85627,6.804683 36.567389,6.789946 35.232849,6.817124 c -0.878256,0.01789 -1.622502,0.05819 -1.65388,0.08957 -0.03138,0.03138 -0.09201,2.906734 -0.134732,6.389679 -0.04272,3.482946 -0.08796,6.345042 -0.100518,6.360215 -0.01256,0.01517 -0.544658,-0.263477 -1.182436,-0.619222 -1.217222,-0.67895 -2.627497,-1.406044 -2.996039,-1.544664 -0.25228,-0.09489 -0.851897,0.179361 -3.141636,1.436919 -1.280221,0.703115 -1.337911,0.726102 -1.391791,0.554561 -0.03092,-0.09843 -0.08792,-2.955695 -0.126684,-6.349486 -0.03876,-3.39379 -0.09844,-6.198512 -0.13263,-6.232715 -0.03419,-0.0342 -3.116965,-0.06219 -6.85062,-0.06219 -5.462158,0 -6.809041,0.02056 -6.89379,0.105231 -0.08581,0.08573 -0.105328,3.27319 -0.105328,17.200674 0,9.402494 0.02836,17.164883 0.06302,17.249753 0.06175,0.151181 0.327724,0.153287 13.112985,0.103833 7.177478,-0.02776 13.127965,-0.0731 13.223306,-0.100746 z"
     id="path860" />
</svg>
