<?xml version="1.0" encoding="UTF-8" standalone="no"?>
<!-- Created with Inkscape (http://www.inkscape.org/) -->

<svg
   width="128"
   height="128"
   viewBox="0 0 33.866666 33.866668"
   version="1.1"
   id="svg5"
   xmlns="http://www.w3.org/2000/svg"
   xmlns:svg="http://www.w3.org/2000/svg">
  <defs
     id="defs2" />
  <g
     id="layer1">
    <path
       style="opacity:0.9;fill:#ffffff;stroke:#ffffff;stroke-width:0.427919;stroke-linejoin:bevel;stroke-opacity:1"
       d="m 5.2498252,11.474489 c 0,-0.183904 0.901504,-1.8766685 1.355426,-2.5450975 1.813843,-2.671003 4.9740528,-4.721453 8.1232328,-5.270623 1.255378,-0.21892 3.383825,-0.215346 4.559397,0.0077 3.7969,0.72026 7.143509,3.26031 8.901456,6.7561365 0.273372,0.543628 0.497042,1.022297 0.497042,1.063709 0,0.04141 -0.267482,-0.176895 -0.594405,-0.485128 C 25.56759,8.6211135 21.374103,7.2268815 16.738692,7.2264945 c -4.162884,-3.2e-4 -8.4752738,1.493801 -10.8944618,3.7746915 -0.326923,0.308233 -0.594405,0.521239 -0.594405,0.473347 z"
       id="path1058" />
    <path
       style="opacity:0.9;fill:#ffffff;stroke:#ffffff;stroke-width:0.427919;stroke-linejoin:bevel;stroke-opacity:1"
       d="m 4.8184362,6.3176935 c -0.210649,-0.12843 -0.452398,-0.413347 -0.55202,-0.650592 -0.468875,-1.116611 0.798293,-2.231632 1.892875,-1.665601 0.889972,0.460222 0.885195,1.832609 -0.0082,2.36036 -0.419799,0.24798 -0.878388,0.232782 -1.332639,-0.04417 z"
       id="path1097" />
    <path
       style="opacity:0.9;fill:#ffffff;stroke:#ffffff;stroke-width:0.427919;stroke-linejoin:bevel;stroke-opacity:1"
       d="m 25.625629,4.3029815 c -0.967687,-0.428882 -1.401984,-1.617365 -0.943828,-2.582854 0.233309,-0.491664 1.035877,-0.97819398 1.613604,-0.97819398 0.563478,0 1.16064,0.29662798 1.495413,0.74281198 0.223283,0.297594 0.272851,0.497854 0.272851,1.102356 0,0.800089 -0.203639,1.194864 -0.829154,1.607398 -0.306139,0.201904 -1.25391,0.265808 -1.608886,0.108482 z"
       id="path1136" />
    <path
       style="opacity:0.9;fill:#ffffff;stroke:#ffffff;stroke-width:0.427919;stroke-linejoin:bevel;stroke-opacity:1"
       d="m 6.7487322,33.234985 c -1.838188,-0.696159 -2.162935,-3.125902 -0.565728,-4.232768 0.646858,-0.448268 1.643519,-0.500286 2.350203,-0.12265 1.396353,0.746173 1.6866878,2.74576 0.548813,3.779759 -0.640679,0.582187 -1.655162,0.832478 -2.333288,0.575659 z"
       id="path1175" />
    <path
       style="opacity:0.9;fill:#ffffff;stroke:#ffffff;stroke-width:0.427919;stroke-linejoin:bevel;stroke-opacity:1"
       d="m 14.42065,28.975516 c -3.774887,-0.83181 -6.9552648,-3.293902 -8.6730738,-6.714264 -0.273763,-0.545096 -0.497751,-1.023063 -0.497751,-1.06215 0,-0.03909 0.318431,0.223837 0.707625,0.584275 2.354675,2.1807 6.0071228,3.48811 10.1615008,3.637356 4.686452,0.168359 8.640131,-0.994789 11.689974,-3.439123 0.42033,-0.336876 0.764233,-0.580191 0.764233,-0.540694 0,0.209039 -1.094056,2.133497 -1.578479,2.776563 -0.694859,0.922416 -2.016938,2.188541 -2.939314,2.814916 -0.967585,0.657072 -2.593737,1.415978 -3.803881,1.775227 -0.893143,0.265139 -1.256676,0.307276 -2.943722,0.341226 -1.568164,0.03156 -2.10303,-7.26e-4 -2.887112,-0.173332 z"
       id="path1214" />
  </g>
</svg>
